<?xml version="1.0" encoding="UTF-8" standalone="no"?>
<svg
   id="visual"
   viewBox="0 0 900 600"
   width="900"
   height="600"
   version="1.1"
   sodipodi:docname="layered-waves-haikei.svg"
   inkscape:version="1.1.2 (0a00cf5339, 2022-02-04)"
   xmlns:inkscape="http://www.inkscape.org/namespaces/inkscape"
   xmlns:sodipodi="http://sodipodi.sourceforge.net/DTD/sodipodi-0.dtd"
   xmlns="http://www.w3.org/2000/svg"
   xmlns:svg="http://www.w3.org/2000/svg">
  <defs
     id="defs17" />
  <sodipodi:namedview
     id="namedview15"
     pagecolor="#ffffff"
     bordercolor="#666666"
     borderopacity="1.0"
     inkscape:pageshadow="2"
     inkscape:pageopacity="0.0"
     inkscape:pagecheckerboard="0"
     showgrid="false"
     inkscape:zoom="1.05"
     inkscape:cx="450"
     inkscape:cy="299.52381"
     inkscape:window-width="2514"
     inkscape:window-height="950"
     inkscape:window-x="46"
     inkscape:window-y="0"
     inkscape:window-maximized="1"
     inkscape:current-layer="visual" />
  <path
     d="M0 383L21.5 369.5C43 356 86 329 128.8 328.8C171.7 328.7 214.3 355.3 257.2 364.2C300 373 343 364 385.8 364.3C428.7 364.7 471.3 374.3 514.2 380.2C557 386 600 388 642.8 391C685.7 394 728.3 398 771.2 387.7C814 377.3 857 352.7 878.5 340.3L900 328L900 601L878.5 601C857 601 814 601 771.2 601C728.3 601 685.7 601 642.8 601C600 601 557 601 514.2 601C471.3 601 428.7 601 385.8 601C343 601 300 601 257.2 601C214.3 601 171.7 601 128.8 601C86 601 43 601 21.5 601L0 601Z"
     fill="#008364"
     id="path4" />
  <path
     d="M0 448L21.5 437C43 426 86 404 128.8 405C171.7 406 214.3 430 257.2 433.5C300 437 343 420 385.8 417C428.7 414 471.3 425 514.2 419.8C557 414.7 600 393.3 642.8 380.2C685.7 367 728.3 362 771.2 371.8C814 381.7 857 406.3 878.5 418.7L900 431L900 601L878.5 601C857 601 814 601 771.2 601C728.3 601 685.7 601 642.8 601C600 601 557 601 514.2 601C471.3 601 428.7 601 385.8 601C343 601 300 601 257.2 601C214.3 601 171.7 601 128.8 601C86 601 43 601 21.5 601L0 601Z"
     fill="#00675e"
     id="path6" />
  <path
     d="M0 479L21.5 471.7C43 464.3 86 449.7 128.8 438.2C171.7 426.7 214.3 418.3 257.2 419.7C300 421 343 432 385.8 439.5C428.7 447 471.3 451 514.2 454.8C557 458.7 600 462.3 642.8 459.8C685.7 457.3 728.3 448.7 771.2 453.2C814 457.7 857 475.3 878.5 484.2L900 493L900 601L878.5 601C857 601 814 601 771.2 601C728.3 601 685.7 601 642.8 601C600 601 557 601 514.2 601C471.3 601 428.7 601 385.8 601C343 601 300 601 257.2 601C214.3 601 171.7 601 128.8 601C86 601 43 601 21.5 601L0 601Z"
     fill="#014c4f"
     id="path8" />
  <path
     d="M0 503L21.5 498.7C43 494.3 86 485.7 128.8 490.3C171.7 495 214.3 513 257.2 517.3C300 521.7 343 512.3 385.8 503.3C428.7 494.3 471.3 485.7 514.2 483C557 480.3 600 483.7 642.8 484C685.7 484.3 728.3 481.7 771.2 479.8C814 478 857 477 878.5 476.5L900 476L900 601L878.5 601C857 601 814 601 771.2 601C728.3 601 685.7 601 642.8 601C600 601 557 601 514.2 601C471.3 601 428.7 601 385.8 601C343 601 300 601 257.2 601C214.3 601 171.7 601 128.8 601C86 601 43 601 21.5 601L0 601Z"
     fill="#173238"
     id="path10" />
  <path
     d="M0 536L21.5 532.8C43 529.7 86 523.3 128.8 521.3C171.7 519.3 214.3 521.7 257.2 521C300 520.3 343 516.7 385.8 522.2C428.7 527.7 471.3 542.3 514.2 550.5C557 558.7 600 560.3 642.8 554.3C685.7 548.3 728.3 534.7 771.2 528.2C814 521.7 857 522.3 878.5 522.7L900 523L900 601L878.5 601C857 601 814 601 771.2 601C728.3 601 685.7 601 642.8 601C600 601 557 601 514.2 601C471.3 601 428.7 601 385.8 601C343 601 300 601 257.2 601C214.3 601 171.7 601 128.8 601C86 601 43 601 21.5 601L0 601Z"
     fill="#181a1b"
     id="path12" />
</svg>
