<?xml version="1.0" encoding="UTF-8" standalone="no"?>
<svg
   id="visual"
   viewBox="0 0 960 540"
   width="960"
   height="540"
   version="1.1"
   sodipodi:docname="layered-waves-haikei-middle.svg"
   inkscape:version="1.1.2 (0a00cf5339, 2022-02-04)"
   xmlns:inkscape="http://www.inkscape.org/namespaces/inkscape"
   xmlns:sodipodi="http://sodipodi.sourceforge.net/DTD/sodipodi-0.dtd"
   xmlns="http://www.w3.org/2000/svg"
   xmlns:svg="http://www.w3.org/2000/svg">
  <defs
     id="defs21" />
  <sodipodi:namedview
     id="namedview19"
     pagecolor="#ffffff"
     bordercolor="#666666"
     borderopacity="1.0"
     inkscape:pageshadow="2"
     inkscape:pageopacity="0.0"
     inkscape:pagecheckerboard="0"
     showgrid="false"
     inkscape:zoom="1.1666667"
     inkscape:cx="479.57143"
     inkscape:cy="269.57143"
     inkscape:window-width="2514"
     inkscape:window-height="950"
     inkscape:window-x="46"
     inkscape:window-y="0"
     inkscape:window-maximized="1"
     inkscape:current-layer="visual" />
  <path
     d="M0 359L22.8 356.5C45.7 354 91.3 349 137 349.7C182.7 350.3 228.3 356.7 274 351.2C319.7 345.7 365.3 328.3 411.2 314C457 299.7 503 288.3 548.8 286C594.7 283.7 640.3 290.3 686 289C731.7 287.7 777.3 278.3 823 284.5C868.7 290.7 914.3 312.3 937.2 323.2L960 334L960 541L937.2 541C914.3 541 868.7 541 823 541C777.3 541 731.7 541 686 541C640.3 541 594.7 541 548.8 541C503 541 457 541 411.2 541C365.3 541 319.7 541 274 541C228.3 541 182.7 541 137 541C91.3 541 45.7 541 22.8 541L0 541Z"
     fill="#181a1b"
     id="path4" />
  <path
     d="M0 347L22.8 338C45.7 329 91.3 311 137 314.7C182.7 318.3 228.3 343.7 274 359.8C319.7 376 365.3 383 411.2 373.3C457 363.7 503 337.3 548.8 337.8C594.7 338.3 640.3 365.7 686 376.7C731.7 387.7 777.3 382.3 823 375.7C868.7 369 914.3 361 937.2 357L960 353L960 541L937.2 541C914.3 541 868.7 541 823 541C777.3 541 731.7 541 686 541C640.3 541 594.7 541 548.8 541C503 541 457 541 411.2 541C365.3 541 319.7 541 274 541C228.3 541 182.7 541 137 541C91.3 541 45.7 541 22.8 541L0 541Z"
     fill="#0c4348"
     id="path6" />
  <path
     d="M0 393L22.8 384.2C45.7 375.3 91.3 357.7 137 359.2C182.7 360.7 228.3 381.3 274 394.3C319.7 407.3 365.3 412.7 411.2 416.5C457 420.3 503 422.7 548.8 412.8C594.7 403 640.3 381 686 370.2C731.7 359.3 777.3 359.7 823 370.8C868.7 382 914.3 404 937.2 415L960 426L960 541L937.2 541C914.3 541 868.7 541 823 541C777.3 541 731.7 541 686 541C640.3 541 594.7 541 548.8 541C503 541 457 541 411.2 541C365.3 541 319.7 541 274 541C228.3 541 182.7 541 137 541C91.3 541 45.7 541 22.8 541L0 541Z"
     fill="#007161"
     id="path8" />
  <path
     d="M0 367L22.8 375C45.7 383 91.3 399 137 402C182.7 405 228.3 395 274 394.7C319.7 394.3 365.3 403.7 411.2 401.7C457 399.7 503 386.3 548.8 382.3C594.7 378.3 640.3 383.7 686 390.7C731.7 397.7 777.3 406.3 823 416.2C868.7 426 914.3 437 937.2 442.5L960 448L960 541L937.2 541C914.3 541 868.7 541 823 541C777.3 541 731.7 541 686 541C640.3 541 594.7 541 548.8 541C503 541 457 541 411.2 541C365.3 541 319.7 541 274 541C228.3 541 182.7 541 137 541C91.3 541 45.7 541 22.8 541L0 541Z"
     fill="#008364"
     id="path10" />
  <path
     d="M0 472L22.8 465C45.7 458 91.3 444 137 436.5C182.7 429 228.3 428 274 429.5C319.7 431 365.3 435 411.2 438.2C457 441.3 503 443.7 548.8 440.5C594.7 437.3 640.3 428.7 686 429.5C731.7 430.3 777.3 440.7 823 448C868.7 455.3 914.3 459.7 937.2 461.8L960 464L960 541L937.2 541C914.3 541 868.7 541 823 541C777.3 541 731.7 541 686 541C640.3 541 594.7 541 548.8 541C503 541 457 541 411.2 541C365.3 541 319.7 541 274 541C228.3 541 182.7 541 137 541C91.3 541 45.7 541 22.8 541L0 541Z"
     fill="#007161"
     id="path12" />
  <path
     d="M0 485L22.8 483.5C45.7 482 91.3 479 137 474C182.7 469 228.3 462 274 455.8C319.7 449.7 365.3 444.3 411.2 441.7C457 439 503 439 548.8 445.7C594.7 452.3 640.3 465.7 686 465.7C731.7 465.7 777.3 452.3 823 454C868.7 455.7 914.3 472.3 937.2 480.7L960 489L960 541L937.2 541C914.3 541 868.7 541 823 541C777.3 541 731.7 541 686 541C640.3 541 594.7 541 548.8 541C503 541 457 541 411.2 541C365.3 541 319.7 541 274 541C228.3 541 182.7 541 137 541C91.3 541 45.7 541 22.8 541L0 541Z"
     fill="#0c4348"
     id="path14" />
  <path
     d="M0 502L22.8 502.3C45.7 502.7 91.3 503.3 137 504.3C182.7 505.3 228.3 506.7 274 504.7C319.7 502.7 365.3 497.3 411.2 498C457 498.7 503 505.3 548.8 508.2C594.7 511 640.3 510 686 503.8C731.7 497.7 777.3 486.3 823 483.3C868.7 480.3 914.3 485.7 937.2 488.3L960 491L960 541L937.2 541C914.3 541 868.7 541 823 541C777.3 541 731.7 541 686 541C640.3 541 594.7 541 548.8 541C503 541 457 541 411.2 541C365.3 541 319.7 541 274 541C228.3 541 182.7 541 137 541C91.3 541 45.7 541 22.8 541L0 541Z"
     fill="#181a1b"
     id="path16" />
</svg>
